PathFileType	4	(X/Y/Z)	OpenSim_Sub02_EMGStiffKnee_Gyro.trc
DataRate	CameraRate	NumFrames	NumMarkers	Units	OrigDataRate	OrigDataStartFrame	OrigNumFrames
100	100	34	8	m	100	4932	7890
Frame#	Time	torso_imu_offset_imu	pelvis_imu_offset_imu	tibia_r_imu_offset_imu	femur_r_imu_offset_imu	tibia_l_imu_offset_imu	femur_l_imu_offset_imu	toes_r_imu_offset_imu	toes_l_imu_offset_imu
				X1	Y1	Z1	X2	Y2	Z2	X3	Y3	Z3	X4	Y4	Z4	X5	Y5	Z5	X6	Y6	Z6	X7	Y7	Z7	X8		Y8	Z8	

4932	49.31000000	-0.24153931	0.19573574	0.19096741	0.05487328	-0.14222016	0.24962710	0.71005175	-0.31631813	-0.81239278	-0.32004726	0.05659527	0.46379025	0.17281929	0.95205939	1.39014965	0.34652851	0.47406315	0.76924001	1.75503426	-3.54650190	0.62810985	0.24253017	-1.01697810	0.22755503
4933	49.32000000	-0.20735523	0.24823761	0.15870873	0.07687016	0.03092129	0.34307492	0.05767057	-0.71159133	-1.78302295	-0.64607177	-0.14580775	0.48844676	0.24956920	1.04533865	1.51219262	0.27468893	0.50815423	0.64953117	-2.87724289	-5.44561689	0.71914946	0.31875707	-1.28746579	0.22255645
4934	49.33000000	-0.20909048	0.32934568	0.12576343	-0.01060526	0.30435994	0.47714748	-0.55307776	-1.43244784	-2.83653450	-0.63904756	-0.75507243	0.33954731	0.24457133	1.15174562	1.61871643	0.30136803	0.51429850	0.52109462	-5.80626422	-5.80188484	-0.45646611	0.39889281	-1.64374841	0.21135059
4935	49.34000000	-0.21827467	0.39477572	0.10549361	-0.29597640	0.45882709	0.61599345	-2.09322635	-2.16941630	-3.31541171	-0.73973974	-1.35101400	0.07634735	0.10698836	1.25242169	1.70169150	0.36163730	0.46770306	0.40789131	3.59658826	-4.14815665	-1.04327006	0.37106142	-2.07947828	0.22971557
4936	49.35000000	-0.25264961	0.40273236	0.12249693	-0.61287984	0.30633829	0.67314044	-3.08702941	-1.66474216	-2.61802064	-0.14532462	-1.15388411	0.21762426	-0.09569458	1.33395584	1.78739519	0.36758596	0.35087056	0.26482895	2.52521429	-2.08480356	-0.36901620	0.34582094	-2.60418857	0.31465898
4937	49.36000000	-0.26734313	0.39986309	0.14500157	-0.66391181	-0.00037605	0.61380585	-0.82079216	0.18323706	-1.51860144	1.45542485	-0.33027990	0.66640113	-0.31657566	1.37868089	1.91720994	0.30879839	0.25180547	0.02743499	0.41877053	-0.96934568	-0.12987941	0.38951625	-3.16301154	0.45986883
4938	49.37000000	-0.22210421	0.38830903	0.08070137	-0.54553237	-0.13593747	0.44506830	2.57232727	1.24677624	-1.15562195	2.12924493	-0.04137673	0.82206719	-0.43925008	1.37837482	2.08928369	0.20279135	0.28740948	-0.26750111	3.90195639	-0.13081599	-0.48920278	0.32848786	-3.74120736	0.65380618
4939	49.38000000	-0.15831325	0.34948622	-0.05676403	-0.39535806	-0.11041506	0.28052995	4.23846523	1.00003668	-1.37887405	1.60908460	-0.39532410	0.90173534	-0.35813716	1.32442635	2.21215126	-0.03652335	0.40998940	-0.53312204	-0.32346507	-0.39372173	-0.60451771	0.12618107	-4.31232169	0.87701736
4940	49.39000000	-0.07187486	0.30057475	-0.16819028	-0.09140327	-0.01616668	0.13856173	4.14533895	0.48726853	-1.52477119	1.11240232	-0.73676842	0.72012216	-0.21823655	1.29252422	2.29895121	-0.33132477	0.50121162	-0.70867181	-1.00818595	-0.50677829	-0.29697953	0.14871858	-4.83043703	1.06327508
4941	49.40000000	0.08321660	0.25553458	-0.18784275	0.22492558	0.07299233	0.06286231	2.90867028	-0.16161524	-1.38105604	0.58248861	-0.78246497	0.12143355	-0.11649506	1.29274566	2.40098056	-0.45610136	0.53521241	-0.82292448	1.41629071	-0.11689265	-0.14851335	0.31575652	-5.49497091	1.19518045
4942	49.41000000	0.24328600	0.21049801	-0.13133975	0.39750492	0.08786610	0.09012280	1.44477188	-0.80896678	-1.04455527	-0.29141996	-0.78129794	-0.61190457	0.03867457	1.35281575	2.48999129	-0.36667272	0.51149128	-0.94534649	0.24512865	-0.34057761	-0.12201017	0.01741842	-6.14184899	1.23848579
4943	49.42000000	0.36818353	0.15877405	-0.06745645	0.51027025	0.13736577	0.13709424	0.73361931	-0.77718662	-0.94936203	-1.14951847	-1.01162942	-1.28286276	0.35244273	1.44635111	2.48687963	-0.23269753	0.46303195	-1.06884561	-0.20905982	-0.31191000	-0.04871188	-0.21279119	-6.63849616	1.31694827
4944	49.43000000	0.47672314	0.11365694	-0.02142078	0.63529542	0.21130522	0.18833504	0.23230963	-0.64833232	-1.11861072	-1.48014849	-1.08339651	-1.86883579	0.68921237	1.52926204	2.35006649	-0.15061157	0.42945265	-1.18161230	0.15269898	-0.23144658	-0.00210845	-0.93102682	-6.85114703	1.63938356
4945	49.44000000	0.55148066	0.06605933	0.04601111	0.69309688	0.22053213	0.21139760	-0.20347518	-0.93096709	-1.10020416	-1.30614947	-0.89214672	-2.21436220	0.93421436	1.46758110	2.18668654	-0.00081931	0.41649625	-1.32331208	-0.28531244	-0.28713043	0.04742109	-1.42745742	-6.56262957	2.00946318
4946	49.45000000	0.57060538	0.00919745	0.13383864	0.69766911	0.20651248	0.21067834	-0.55610879	-0.76702663	-0.77979475	-0.99175138	-0.66347771	-2.21783429	0.86352479	1.19979863	2.03786977	0.19156675	0.38970437	-1.49789465	-0.10338115	-0.28016255	0.08290765	-1.02026876	-6.06588918	2.04993599
4947	49.46000000	0.56127344	-0.03566130	0.19856493	0.64824487	0.19238683	0.16067924	-1.46425223	-0.27868143	-0.60246433	-0.65798753	-0.45731229	-1.90786612	0.31747111	0.97424130	1.84990638	0.23257586	0.32270352	-1.64692331	-0.27980035	-0.37359075	0.09122051	0.65003789	-5.21900614	1.83040698
4948	49.47000000	0.53990595	-0.06326363	0.24021395	0.56196470	0.16602311	0.04477316	-2.08048800	-0.36626634	-0.83512066	-0.29305917	-0.31050634	-1.40108585	-0.50057690	0.77264471	1.74309604	0.10702380	0.21722693	-1.71780644	-0.23611102	-0.44740044	0.10086829	2.32257549	-3.70744519	1.47154004
4949	49.48000000	0.50139637	-0.07088266	0.24611660	0.47561391	0.15293517	-0.10613469	-2.15686068	-0.60904292	-0.76119530	0.02805017	-0.26334923	-0.90148141	-1.31067463	0.40341495	1.86601570	-0.05650704	0.07371174	-1.71522620	-0.27344295	-0.55255020	0.10492565	1.64843404	-1.75210706	0.97845854
4950	49.49000000	0.43610452	-0.07176529	0.22119893	0.40034265	0.13613138	-0.26209641	-2.04354113	-0.50340505	-0.42337466	0.23379692	-0.23590374	-0.61189067	-1.59229741	-0.00466589	1.98939361	-0.17225553	-0.06806755	-1.65370221	-0.25882519	-0.62445914	0.11510335	0.16105571	-0.54944755	0.55226020
4951	49.50000000	0.39263523	-0.08843748	0.18360075	0.35175231	0.10647503	-0.37558751	-1.50966860	-0.19250973	-0.60465201	0.34233828	-0.21370146	-0.61506997	-0.75024382	-0.12607596	1.63475726	-0.33529210	-0.14784318	-1.50056439	-0.23787576	-0.62025799	0.15117229	0.64402530	0.17429064	0.36508944
4952	49.51000000	0.39652399	-0.09937764	0.13379419	0.32689412	0.06980044	-0.42816865	-1.07089006	-0.22035519	-0.94840941	0.33728280	-0.20817444	-0.79679693	0.59912822	-0.03628119	0.79793894	-0.51049417	-0.16224750	-1.27125540	-0.28567069	-0.62247160	0.17384677	0.81430542	1.01033557	0.32923518
4953	49.52000000	0.42427019	-0.09863529	0.05514353	0.33856148	0.04003136	-0.43822059	-0.60802623	-0.46925593	-0.92382057	0.14984137	-0.22815774	-0.98924793	1.41624780	0.05877278	-0.14854887	-0.61130155	-0.16210969	-1.11200874	-0.27817559	-0.65075874	0.16113707	1.11935842	1.47276424	0.27740970
4954	49.53000000	0.47279651	-0.10364194	-0.01200524	0.37198115	0.01820590	-0.43475065	0.28260386	-0.42831799	-0.72463988	-0.17447785	-0.28256159	-1.12223283	1.83349854	0.00186847	-0.83448167	-0.61274484	-0.16724816	-1.06501465	-0.29149319	-0.64220944	0.13651055	1.17268065	1.90487666	0.19774554
4955	49.54000000	0.52845894	-0.10161882	-0.02465621	0.40471629	0.00223220	-0.42512813	0.61487195	-0.35996919	-0.46485620	-0.49615851	-0.35995276	-1.17948862	2.04209463	-0.41256744	-1.01603468	-0.56036558	-0.19561528	-1.01029310	-0.21513566	-0.62006165	0.11327034	1.07777133	2.27385326	0.01292377
4956	49.55000000	0.57397909	-0.11936816	-0.02530554	0.44808787	0.00056466	-0.41507661	0.24891644	-0.41862952	-0.25115742	-0.68302171	-0.42717415	-1.18468747	2.16411116	-1.04415046	-0.94709964	-0.54813489	-0.25592726	-0.97468229	-0.19792919	-0.66817182	0.12049620	0.96655823	2.55733848	-0.22371043
4957	49.56000000	0.60495447	-0.14759699	-0.03052182	0.47264809	0.01043597	-0.39297298	0.05569852	-0.26956051	-0.24211020	-0.79874343	-0.43189961	-1.13571089	2.34385785	-1.52273415	-1.04954874	-0.54920625	-0.30162787	-0.95117024	-0.25741086	-0.69244259	0.14814918	1.02922906	2.79169058	-0.50016140
4958	49.57000000	0.61598578	-0.16781293	-0.02566687	0.46552181	0.03061477	-0.37000783	-0.19327295	-0.17322545	-0.36931377	-0.83985853	-0.37379026	-1.05628312	2.41073763	-1.68918387	-1.35704779	-0.54683753	-0.29219182	-0.93392647	-0.27780316	-0.68686499	0.17856067	1.22733300	3.08968784	-0.81381818
4959	49.58000000	0.59491553	-0.22388958	0.00177545	0.41944827	0.04843675	-0.35948570	-0.45102472	-0.16956884	-0.51141267	-0.68184162	-0.28948624	-1.00399134	2.26943041	-1.69495149	-1.75947129	-0.53353619	-0.23919126	-0.91821501	-0.26482401	-0.72287562	0.20295681	1.34742074	3.42924949	-1.11489124
4960	49.59000000	0.55316126	-0.29248027	0.03330145	0.33124387	0.05509146	-0.37169026	-0.52847318	-0.15331962	-0.59189214	-0.48277708	-0.19877656	-0.96420000	1.89692957	-1.75209540	-2.14099200	-0.51000983	-0.18308306	-0.87544428	-0.30890361	-0.69126751	0.22481439	1.20208887	3.75007039	-1.33950851
4961	49.60000000	0.50023717	-0.30069192	0.06859448	0.24386510	0.05287459	-0.37798615	-0.55483276	-0.12822398	-0.60231565	-0.45985763	-0.15511046	-0.89048956	1.36361755	-1.91596937	-2.43189645	-0.49487165	-0.12569135	-0.83805871	-0.36504538	-0.67838474	0.22130843	0.87293148	4.11066403	-1.45638721
4962	49.61000000	0.44959801	-0.31369367	0.11143339	0.17037020	0.06051039	-0.35012659	-0.49916673	-0.15065779	-0.59054086	-0.48036430	-0.23549512	-0.74608236	0.79844142	-2.12736495	-2.66774455	-0.46623223	-0.08931430	-0.82056888	-0.28653298	-0.68586049	0.18328989	0.72055784	4.41623279	-1.45771038
4963	49.62000000	0.41444994	-0.35379632	0.15600964	0.12401014	0.10470524	-0.31151624	-0.39742759	-0.14600618	-0.55549512	-0.32595891	-0.37888544	-0.58858268	0.23468833	-2.32168157	-2.88409856	-0.38627451	-0.08998346	-0.77205623	-0.24161404	-0.61011234	0.14858462	0.94480946	4.56410276	-1.39773449
4964	49.63000000	0.38057082	-0.37804452	0.19904472	0.14026679	0.14228005	-0.27390192	-0.26928169	-0.09817333	-0.51897247	-0.15766316	-0.42164396	-0.53986913	-0.22881065	-2.46691852	-3.09431804	-0.25507241	-0.14325742	-0.72465488	-0.20050100	-0.55899767	0.13354742	1.20984922	4.61237449	-1.35337054
4965	49.64000000	0.35193212	-0.39933132	0.23777686	0.20438894	0.17203708	-0.24570684	-0.15352276	-0.07764228	-0.49255198	-0.10878693	-0.30076938	-0.58453392	-0.40925585	-2.61117715	-3.34023023	-0.05540928	-0.22854166	-0.68902854	-0.18376583	-0.48081630	0.12637868	1.22226277	4.61337578	-1.39590754
